<svg xmlns="http://www.w3.org/2000/svg" xmlns:xlink="http://www.w3.org/1999/xlink" width="2000" viewBox="0 0 1500 1499.999933" height="2000" preserveAspectRatio="xMidYMid meet"><defs><g/></defs><rect x="-150" width="1800" fill="#ffffff" y="-149.999993" height="1799.99992" fill-opacity="1"/><g fill="#394d70" fill-opacity="1"><g transform="translate(448.499995, 806.99991)"><g><path d="M 59.1875 1.875 C 49.519531 1.875 40.898438 -0.269531 33.328125 -4.5625 C 25.765625 -8.851562 19.800781 -14.703125 15.4375 -22.109375 C 11.070312 -29.515625 8.890625 -37.738281 8.890625 -46.78125 C 8.890625 -55.988281 11.070312 -64.253906 15.4375 -71.578125 C 19.800781 -78.910156 25.765625 -84.71875 33.328125 -89 C 40.898438 -93.289062 49.519531 -95.4375 59.1875 -95.4375 C 71.65625 -95.4375 82.253906 -92.003906 90.984375 -85.140625 C 99.722656 -78.285156 105.34375 -69.476562 107.84375 -58.71875 L 84.6875 -58.71875 C 82.5 -63.550781 79.144531 -67.445312 74.625 -70.40625 C 70.101562 -73.375 64.957031 -74.859375 59.1875 -74.859375 C 51.382812 -74.859375 44.753906 -72.164062 39.296875 -66.78125 C 33.835938 -61.40625 31.109375 -54.738281 31.109375 -46.78125 C 31.109375 -38.832031 33.835938 -32.164062 39.296875 -26.78125 C 44.753906 -21.40625 51.382812 -18.71875 59.1875 -18.71875 C 64.957031 -18.71875 70.101562 -20.195312 74.625 -23.15625 C 79.144531 -26.125 82.5 -30.023438 84.6875 -34.859375 L 107.84375 -34.859375 C 105.34375 -24.097656 99.722656 -15.285156 90.984375 -8.421875 C 82.253906 -1.554688 71.65625 1.875 59.1875 1.875 Z M 59.1875 1.875"/></g></g></g><g fill="#394d70" fill-opacity="1"><g transform="translate(557.974751, 806.99991)"><g><path d="M 60.59375 -95.4375 C 67.132812 -95.4375 73.015625 -93.835938 78.234375 -90.640625 C 83.460938 -87.441406 87.632812 -83.148438 90.75 -77.765625 C 93.875 -72.390625 95.4375 -66.273438 95.4375 -59.421875 L 95.4375 0 L 73.21875 0 L 73.21875 -57.3125 C 73.21875 -62.300781 71.539062 -66.472656 68.1875 -69.828125 C 64.832031 -73.179688 60.660156 -74.859375 55.671875 -74.859375 C 50.679688 -74.859375 46.429688 -73.023438 42.921875 -69.359375 C 39.410156 -65.691406 37.65625 -61.363281 37.65625 -56.375 L 37.65625 0 L 15.4375 0 L 15.4375 -166.5625 L 37.65625 -166.5625 L 37.65625 -86.78125 C 40.78125 -89.4375 44.289062 -91.539062 48.1875 -93.09375 C 52.082031 -94.65625 56.21875 -95.4375 60.59375 -95.4375 Z M 60.59375 -95.4375"/></g></g></g><g fill="#394d70" fill-opacity="1"><g transform="translate(663.472846, 806.99991)"><g><path d="M 59.1875 1.875 C 49.519531 1.875 40.898438 -0.269531 33.328125 -4.5625 C 25.765625 -8.851562 19.800781 -14.703125 15.4375 -22.109375 C 11.070312 -29.515625 8.890625 -37.738281 8.890625 -46.78125 C 8.890625 -55.988281 11.070312 -64.253906 15.4375 -71.578125 C 19.800781 -78.910156 25.765625 -84.71875 33.328125 -89 C 40.898438 -93.289062 49.519531 -95.4375 59.1875 -95.4375 C 68.851562 -95.4375 77.46875 -93.289062 85.03125 -89 C 92.59375 -84.71875 98.554688 -78.910156 102.921875 -71.578125 C 107.296875 -64.253906 109.484375 -55.988281 109.484375 -46.78125 C 109.484375 -37.738281 107.296875 -29.515625 102.921875 -22.109375 C 98.554688 -14.703125 92.59375 -8.851562 85.03125 -4.5625 C 77.46875 -0.269531 68.851562 1.875 59.1875 1.875 Z M 59.1875 -18.71875 C 64.488281 -18.71875 69.242188 -19.960938 73.453125 -22.453125 C 77.660156 -24.953125 81.007812 -28.34375 83.5 -32.625 C 86 -36.914062 87.25 -41.632812 87.25 -46.78125 C 87.25 -52.082031 86 -56.835938 83.5 -61.046875 C 81.007812 -65.265625 77.660156 -68.617188 73.453125 -71.109375 C 69.242188 -73.609375 64.488281 -74.859375 59.1875 -74.859375 C 51.226562 -74.859375 44.554688 -72.128906 39.171875 -66.671875 C 33.796875 -61.210938 31.109375 -54.582031 31.109375 -46.78125 C 31.109375 -38.988281 33.796875 -32.363281 39.171875 -26.90625 C 44.554688 -21.445312 51.226562 -18.71875 59.1875 -18.71875 Z M 59.1875 -18.71875"/></g></g></g><g fill="#394d70" fill-opacity="1"><g transform="translate(778.093884, 806.99991)"><g><path d="M 59.1875 1.875 C 49.519531 1.875 40.898438 -0.269531 33.328125 -4.5625 C 25.765625 -8.851562 19.800781 -14.703125 15.4375 -22.109375 C 11.070312 -29.515625 8.890625 -37.738281 8.890625 -46.78125 C 8.890625 -55.988281 11.070312 -64.253906 15.4375 -71.578125 C 19.800781 -78.910156 25.765625 -84.71875 33.328125 -89 C 40.898438 -93.289062 49.519531 -95.4375 59.1875 -95.4375 C 68.851562 -95.4375 77.46875 -93.289062 85.03125 -89 C 92.59375 -84.71875 98.554688 -78.910156 102.921875 -71.578125 C 107.296875 -64.253906 109.484375 -55.988281 109.484375 -46.78125 C 109.484375 -37.738281 107.296875 -29.515625 102.921875 -22.109375 C 98.554688 -14.703125 92.59375 -8.851562 85.03125 -4.5625 C 77.46875 -0.269531 68.851562 1.875 59.1875 1.875 Z M 59.1875 -18.71875 C 64.488281 -18.71875 69.242188 -19.960938 73.453125 -22.453125 C 77.660156 -24.953125 81.007812 -28.34375 83.5 -32.625 C 86 -36.914062 87.25 -41.632812 87.25 -46.78125 C 87.25 -52.082031 86 -56.835938 83.5 -61.046875 C 81.007812 -65.265625 77.660156 -68.617188 73.453125 -71.109375 C 69.242188 -73.609375 64.488281 -74.859375 59.1875 -74.859375 C 51.226562 -74.859375 44.554688 -72.128906 39.171875 -66.671875 C 33.796875 -61.210938 31.109375 -54.582031 31.109375 -46.78125 C 31.109375 -38.988281 33.796875 -32.363281 39.171875 -26.90625 C 44.554688 -21.445312 51.226562 -18.71875 59.1875 -18.71875 Z M 59.1875 -18.71875"/></g></g></g><g fill="#394d70" fill-opacity="1"><g transform="translate(892.714876, 806.99991)"><g><path d="M 41.875 1.875 C 34.070312 1.875 26.703125 -0.113281 19.765625 -4.09375 C 12.828125 -8.070312 8.265625 -13.257812 6.078125 -19.65625 L 24.09375 -27.84375 C 25.5 -24.25 27.835938 -21.59375 31.109375 -19.875 C 34.390625 -18.164062 37.742188 -17.3125 41.171875 -17.3125 C 44.441406 -17.3125 47.207031 -18.085938 49.46875 -19.640625 C 51.738281 -21.203125 52.875 -23.46875 52.875 -26.4375 C 52.875 -29.082031 51.738281 -31.222656 49.46875 -32.859375 C 47.207031 -34.503906 43.582031 -36.335938 38.59375 -38.359375 C 33.914062 -40.078125 29.472656 -42.101562 25.265625 -44.4375 C 21.054688 -46.78125 17.585938 -49.742188 14.859375 -53.328125 C 12.128906 -56.921875 10.765625 -61.523438 10.765625 -67.140625 C 10.765625 -75.398438 13.6875 -82.179688 19.53125 -87.484375 C 25.382812 -92.785156 32.675781 -95.4375 41.40625 -95.4375 C 47.800781 -95.4375 53.6875 -94.070312 59.0625 -91.34375 C 64.445312 -88.613281 68.382812 -85.222656 70.875 -81.171875 L 56.84375 -69.703125 C 54.039062 -74.390625 49.363281 -76.734375 42.8125 -76.734375 C 36.101562 -76.734375 32.75 -73.925781 32.75 -68.3125 C 32.75 -65.34375 33.878906 -63.15625 36.140625 -61.75 C 38.398438 -60.351562 41.789062 -58.71875 46.3125 -56.84375 C 50.53125 -55.125 54.78125 -53.09375 59.0625 -50.75 C 63.351562 -48.414062 66.898438 -45.335938 69.703125 -41.515625 C 72.515625 -37.703125 73.921875 -32.832031 73.921875 -26.90625 C 73.921875 -18.476562 70.914062 -11.570312 64.90625 -6.1875 C 58.90625 -0.8125 51.226562 1.875 41.875 1.875 Z M 41.875 1.875"/></g></g></g><g fill="#394d70" fill-opacity="1"><g transform="translate(968.505062, 806.99991)"><g><path d="M 66.4375 -95.4375 C 69.082031 -95.4375 71.578125 -95.203125 73.921875 -94.734375 L 73.921875 -73.921875 C 72.828125 -74.234375 71.617188 -74.46875 70.296875 -74.625 C 68.972656 -74.78125 67.53125 -74.859375 65.96875 -74.859375 C 57.851562 -74.859375 51.101562 -72.363281 45.71875 -67.375 C 40.34375 -62.382812 37.65625 -55.753906 37.65625 -47.484375 L 37.65625 0 L 15.4375 0 L 15.4375 -93.578125 L 37.65625 -93.578125 L 37.65625 -80.703125 C 40.9375 -85.222656 45.03125 -88.804688 49.9375 -91.453125 C 54.851562 -94.109375 60.351562 -95.4375 66.4375 -95.4375 Z M 66.4375 -95.4375"/></g></g></g></svg>